<svg xmlns="http://www.w3.org/2000/svg" fill="none" viewBox="0 0 16 16" id="Grt--Streamline-Cryptocurrency" height="16" width="16">
  <desc>
    Grt Streamline Icon: https://streamlinehq.com
  </desc>
  <path fill="#5942cc" d="M8 16c4.4183 0 8 -3.5817 8 -8 0 -4.41828 -3.5817 -8 -8 -8C3.58172 0 0 3.58172 0 8c0 4.4183 3.58172 8 8 8Z" stroke-width="0.5"></path>
  <path fill="#000000" d="M10.3535 9.7715c0.09375 0.09375 0.1464 0.2209 0.1464 0.3535 0 0.1326 -0.05265 0.25975 -0.1464 0.3535l-2 2c-0.0461 0.04775 -0.1013 0.08585 -0.1623 0.11205s-0.1266 0.04 -0.193 0.0406c-0.0664 0.00055 -0.13225 -0.0121 -0.1937 -0.03725 -0.06145 -0.02515 -0.11725 -0.06225 -0.1642 -0.1092 -0.04695 -0.04695 -0.08405 -0.1028 -0.1092 -0.1642 -0.02515 -0.06145 -0.0378 -0.1273 -0.03725 -0.1937 0.0006 -0.0664 0.0144 -0.132 0.0406 -0.193 0.0262 -0.061 0.0643 -0.1162 0.11205 -0.1623l2 -2c0.09375 -0.09375 0.2209 -0.1464 0.3535 -0.1464 0.1326 0 0.25975 0.05265 0.3535 0.1464ZM7.5 3.625c0.39395 0 0.78405 0.077595 1.14805 0.22836s0.6947 0.371745 0.97325 0.65032c0.2786 0.278575 0.49955 0.60927 0.65035 0.97327 0.15075 0.364 0.22835 0.7541 0.22835 1.14805s-0.0776 0.78405 -0.22835 1.14805c-0.1508 0.364 -0.37175 0.6947 -0.65035 0.97325 -0.27855 0.2786 -0.60925 0.49955 -0.97325 0.65035 -0.364 0.15075 -0.7541 0.22835 -1.14805 0.22835 -0.79565 0 -1.5587 -0.31605 -2.1213 -0.8787C4.81607 8.1837 4.5 7.42065 4.5 6.625c0 -0.79565 0.31607 -1.5587 0.8787 -2.12132C5.9413 3.94107 6.70435 3.625 7.5 3.625Zm0 1c-0.53045 0 -1.03915 0.210715 -1.4142 0.5858C5.7107 5.58585 5.5 6.09455 5.5 6.625c0 0.53045 0.2107 1.03915 0.5858 1.4142 0.37505 0.3751 0.88375 0.5858 1.4142 0.5858 0.53045 0 1.03915 -0.2107 1.4142 -0.5858C9.2893 7.66415 9.5 7.15545 9.5 6.625c0 -0.53045 -0.2107 -1.03915 -0.5858 -1.4142C8.53915 4.835715 8.03045 4.625 7.5 4.625Zm3.5 -1c0.1326 0 0.2598 0.05268 0.35355 0.146445 0.09375 0.09377 0.14645 0.220945 0.14645 0.353555s-0.0527 0.259785 -0.14645 0.353555c-0.09375 0.093765 -0.22095 0.146445 -0.35355 0.146445 -0.1326 0 -0.2598 -0.05268 -0.35355 -0.146445C10.5527 4.384785 10.5 4.25761 10.5 4.125s0.0527 -0.259785 0.14645 -0.353555c0.09375 -0.093765 0.22095 -0.146445 0.35355 -0.146445Z" stroke-width="0.5"></path>
</svg>